<svg width="48" height="48" viewBox="0 0 48 48" fill="none" xmlns="http://www.w3.org/2000/svg">
<rect width="48" height="48" fill="white"/>
<path d="M15 13.5H19C20.3807 13.5 21.5 14.6193 21.5 16V23.5H12.5V16C12.5 14.6193 13.6193 13.5 15 13.5Z" stroke="#6E8860" stroke-width="3"/>
<path d="M29 13.5H33C34.3807 13.5 35.5 14.6193 35.5 16V23.5H26.5V16C26.5 14.6193 27.6193 13.5 29 13.5Z" stroke="#6E8860" stroke-width="3"/>
<path d="M16 3.5H33C37.6944 3.5 41.5 7.30558 41.5 12V23.5H7.5V12C7.5 7.30558 11.3056 3.5 16 3.5Z" stroke="#667638" stroke-width="3"/>
<path d="M5 24.5H43C44.933 24.5 46.5 26.067 46.5 28V37.5H1.5V28C1.5 26.067 3.067 24.5 5 24.5Z" stroke="#667638" stroke-width="3"/>
<path d="M5 42C17.6667 42 30.3333 42 43 42" stroke="#667638" stroke-width="2" stroke-linecap="round" stroke-linejoin="round"/>
<path d="M43 38C43 40.6667 43 43.3333 43 46" stroke="#667638" stroke-width="2" stroke-linecap="round" stroke-linejoin="round"/>
<path d="M5 38C5 40.6667 5 43.3333 5 46" stroke="#667638" stroke-width="2" stroke-linecap="round" stroke-linejoin="round"/>
</svg>
