<svg width="48" height="48" viewBox="0 0 48 48" fill="none" xmlns="http://www.w3.org/2000/svg">
<rect width="48" height="48" fill="white"/>
<path d="M5 7.5H43C44.933 7.5 46.5 9.067 46.5 11V23C46.5 24.933 44.933 26.5 43 26.5H5C3.067 26.5 1.5 24.933 1.5 23V11C1.5 9.067 3.067 7.5 5 7.5Z" stroke="#667638" stroke-width="3"/>
<path d="M1 22H45.5" stroke="#667638" stroke-width="3"/>
<path d="M20 13L27 13" stroke="#667638" stroke-width="3" stroke-linecap="round"/>
<path d="M8 26V26C10.3822 28.9778 10.5635 33.1548 8.44819 36.3277L8 37" stroke="#667638" stroke-width="3" stroke-linecap="round" stroke-linejoin="round"/>
<path d="M14 26V26C16.3822 28.9778 16.5635 33.1548 14.4482 36.3277L14 37" stroke="#667638" stroke-width="3" stroke-linecap="round" stroke-linejoin="round"/>
<path d="M34.2861 38.2052C34.8589 38.8037 35.8084 38.8246 36.4069 38.2518C37.0054 37.679 37.0262 36.7295 36.4535 36.131L34.2861 38.2052ZM33.9725 37.8776L34.2861 38.2052L36.4535 36.131L36.1399 35.8034L33.9725 37.8776ZM33.7235 25.0056C30.4453 28.7077 30.5536 34.305 33.9725 37.8776L36.1399 35.8034C33.8002 33.3585 33.7261 29.5279 35.9695 26.9944L33.7235 25.0056Z" fill="#667638"/>
<path d="M40.2861 38.2052C40.8589 38.8037 41.8084 38.8246 42.4069 38.2518C43.0054 37.679 43.0262 36.7295 42.4535 36.131L40.2861 38.2052ZM39.9725 37.8776L40.2861 38.2052L42.4535 36.131L42.1399 35.8034L39.9725 37.8776ZM39.7235 25.0056C36.4453 28.7077 36.5536 34.305 39.9725 37.8776L42.1399 35.8034C39.8002 33.3585 39.7261 29.5279 41.9695 26.9944L39.7235 25.0056Z" fill="#667638"/>
</svg>
